<?xml version="1.0" standalone="no"?>
<!DOCTYPE svg PUBLIC "-//W3C//DTD SVG 20010904//EN"
 "http://www.w3.org/TR/2001/REC-SVG-20010904/DTD/svg10.dtd">
<svg version="1.0" xmlns="http://www.w3.org/2000/svg"
 width="256.000000pt" height="256.000000pt" viewBox="0 0 256.000000 256.000000"
 preserveAspectRatio="xMidYMid meet">

<g transform="translate(0.000000,256.000000) scale(0.100000,-0.100000)"
fill="#000000" stroke="none">
<path d="M1135 2330 c-434 -126 -804 -236 -821 -244 -52 -24 -101 -74 -128
-128 -40 -80 -36 -148 19 -334 l45 -152 0 -614 c0 -711 -3 -687 84 -774 82
-81 97 -84 486 -84 304 0 328 1 343 18 22 24 21 45 -1 65 -17 15 -55 17 -341
17 -267 0 -328 3 -358 15 -50 21 -72 42 -94 90 -17 36 -19 72 -19 398 l0 357
980 0 981 0 -3 -368 -3 -368 -27 -41 c-16 -24 -44 -49 -70 -62 -42 -20 -59
-21 -370 -21 -284 0 -329 -2 -342 -16 -21 -20 -20 -48 0 -69 15 -14 54 -16
363 -13 l346 3 51 27 c56 29 93 68 127 132 22 41 22 43 25 681 2 547 1 643
-12 660 -14 20 -31 20 -865 25 l-850 5 811 235 c656 190 813 239 824 256 12
18 8 40 -37 194 -28 95 -61 190 -74 210 -49 78 -146 131 -239 129 -23 0 -394
-103 -831 -229z m903 115 c74 -32 92 -63 147 -258 15 -53 26 -100 23 -102 -15
-15 -183 -56 -199 -48 -21 10 -354 332 -348 337 11 10 278 85 307 85 18 1 49
-6 70 -14z m-313 -279 c119 -114 172 -172 163 -176 -7 -4 -66 -22 -130 -40
l-118 -33 -137 131 c-76 72 -157 150 -181 174 l-43 45 118 35 c65 20 125 35
135 35 9 -1 96 -78 193 -171z m-383 -102 c95 -91 174 -170 176 -174 2 -5 -21
-15 -50 -23 -29 -9 -88 -26 -131 -38 l-77 -22 -143 138 c-78 76 -159 155 -180
175 l-39 37 124 36 c68 19 128 36 135 36 6 1 89 -74 185 -165z m-368 -117
l179 -172 -133 -38 -132 -38 -126 120 c-70 66 -151 144 -181 174 l-54 55 69
20 c38 12 92 27 119 36 28 8 57 15 65 15 8 0 95 -77 194 -172z m-383 -104 c96
-91 175 -169 177 -172 2 -5 -230 -76 -419 -128 -13 -4 -23 22 -54 128 -44 156
-45 216 -2 272 26 34 78 66 108 67 9 0 95 -75 190 -167z m196 -420 c-2 -5 -50
-88 -107 -185 l-102 -178 -114 0 -114 0 0 185 0 185 221 0 c121 0 218 -3 216
-7z m357 -60 c-21 -38 -68 -120 -105 -183 l-67 -115 -136 -3 c-75 -1 -136 0
-136 3 0 6 148 267 187 328 l23 37 136 0 136 0 -38 -67z m425 60 c0 -5 -46
-87 -103 -183 l-102 -175 -137 -3 c-75 -1 -137 0 -137 2 0 5 167 296 196 344
14 21 20 22 149 22 74 0 135 -3 134 -7z m391 1 c0 -3 -46 -86 -102 -185 l-103
-179 -138 0 -138 0 17 31 c8 17 37 68 63 113 27 44 67 114 90 154 l42 72 134
0 c74 0 135 -3 135 -6z m350 -179 l0 -185 -221 0 -221 0 22 38 c12 20 60 103
107 185 l85 147 114 0 114 0 0 -185z"/>
<path d="M1158 829 c-17 -9 -18 -34 -18 -295 l0 -284 24 -11 c28 -13 22 -16
281 134 213 123 225 131 225 162 0 12 -8 29 -17 37 -25 21 -440 259 -461 264
-9 2 -25 -1 -34 -7z m355 -289 c5 -4 -45 -38 -110 -75 -65 -38 -128 -75 -140
-83 l-23 -14 0 165 0 166 133 -76 c72 -42 136 -79 140 -83z"/>
<path d="M1296 84 c-30 -30 -9 -84 33 -84 21 0 51 30 51 52 0 19 -32 48 -53
48 -8 0 -23 -7 -31 -16z"/>
</g>
</svg>
